<svg width="209" height="207" viewBox="0 0 209 207" fill="none" xmlns="http://www.w3.org/2000/svg">
<path d="M110.367 2.05416L109.731 1.83572L109.289 2.343C84.0668 31.2842 90.32 68.2085 96.5844 83.0642L96.8949 83.8005L97.6816 83.6601C103.672 82.5909 109.544 83.7002 114.48 85.5542C119.419 87.4094 123.356 89.9861 125.442 91.7615L126.078 92.3033L126.724 91.7729C131.328 87.9939 140.999 74.1673 144.631 48.3284C146.491 35.1004 141.093 24.6005 133.68 16.9036C126.285 9.2256 116.837 4.27472 110.367 2.05416Z" fill="#FA6938" stroke="#FA6938" stroke-width="2"/>
<path d="M110 3.5C116.667 17.5 126.7 53.1 113.5 83.5" stroke="#FA6938" stroke-width="2"/>
<path d="M96 27C102.167 32.5 115.4 43.2 119 42C122.6 40.8 133.5 30.1667 138.5 25" stroke="#FA6938" stroke-width="2"/>
<path d="M92.5 57C97.8333 62.1667 110.3 71.9 117.5 69.5C124.7 67.1 135.833 63.8333 140.5 62.5" stroke="#FA6938" stroke-width="2"/>
<path d="M201.821 79.82L201.91 79.153L201.325 78.8196C167.979 59.7991 133.013 73.2096 119.684 82.2801L119.023 82.7297L119.316 83.4732C121.545 89.1349 121.615 95.1104 120.771 100.315C119.926 105.523 118.176 109.891 116.847 112.286L116.441 113.016L117.088 113.545C121.701 117.313 137.163 124.069 163.211 122.535C176.546 121.75 185.775 114.388 191.859 105.603C197.929 96.8398 200.92 86.6004 201.821 79.82Z" fill="#FA6938" stroke="#FA6938" stroke-width="2"/>
<path d="M200.331 79.7451C187.92 89.0412 154.997 105.897 122.591 98.9494" stroke="#FA6938" stroke-width="2"/>
<path d="M174.532 70.6531C170.356 77.7831 162.475 92.8663 164.362 96.1591C166.248 99.4518 178.822 108.041 184.873 111.925" stroke="#FA6938" stroke-width="2"/>
<path d="M144.431 73.1367C140.417 79.384 133.333 93.525 137.106 100.111C140.878 106.696 146.276 116.967 148.503 121.279" stroke="#FA6938" stroke-width="2"/>
<path d="M6.98939 63.007L6.52004 63.4892L6.78991 64.1056C22.1864 99.272 58.2441 109.388 74.3523 110.069L75.1507 110.103L75.3597 109.331C76.9513 103.459 80.4623 98.6228 84.2469 94.9514C88.034 91.2776 92.0453 88.8185 94.5414 87.6909L95.3032 87.3468L95.0996 86.536C93.6487 80.7593 85.2773 66.1091 63.465 51.7892C52.2983 44.4582 40.4988 44.8546 30.3733 48.2698C20.2726 51.6766 11.7604 58.1056 6.98939 63.007Z" fill="#FA6938" stroke="#FA6938" stroke-width="2"/>
<path d="M8.14014 63.9561C23.6463 63.9075 60.1212 70.0402 81.9712 94.9596" stroke="#FA6938" stroke-width="2"/>
<path d="M23.4095 86.6521C31.0164 83.4252 46.3434 76.0296 46.7959 72.2619C47.2484 68.4943 42.2891 54.0969 39.7529 47.3692" stroke="#FA6938" stroke-width="2"/>
<path d="M49.0405 102.63C55.9901 100.014 70.1156 92.8989 71.0206 85.3636C71.9257 77.8283 73.727 66.3663 74.5146 61.5772" stroke="#FA6938" stroke-width="2"/>
<path d="M38.0759 189.109L38.4407 189.674L39.1019 189.549C76.8233 182.42 94.7586 149.544 99.0298 133.998L99.2415 133.227L98.5366 132.851C93.1693 129.984 89.2428 125.479 86.5124 120.968C83.7801 116.455 82.2819 111.994 81.742 109.309L81.5772 108.49L80.7415 108.507C74.7866 108.627 58.6335 113.504 39.7921 131.555C30.1463 140.796 27.8899 152.385 28.9504 163.018C30.0084 173.625 34.3676 183.361 38.0759 189.109Z" fill="#FA6938" stroke="#FA6938" stroke-width="2"/>
<path d="M39.2588 188.2C42.6844 173.077 56.8307 138.902 86.0108 123.189" stroke="#FA6938" stroke-width="2"/>
<path d="M64.7981 178.402C63.357 170.265 59.582 153.671 56.0115 152.386C52.4409 151.101 37.2986 152.71 30.1737 153.675" stroke="#FA6938" stroke-width="2"/>
<path d="M86.1108 157C85.1181 149.641 81.3473 134.281 74.2061 131.711C67.065 129.141 56.2976 124.819 51.8066 122.978" stroke="#FA6938" stroke-width="2"/>
<path d="M153.398 189.572L154.064 189.477L154.227 188.824C163.532 151.579 141.173 121.536 128.839 111.153L128.228 110.638L127.591 111.121C122.742 114.797 117.008 116.479 111.769 117.072C106.526 117.665 101.848 117.16 99.1831 116.527L98.3697 116.334L98.0354 117.101C95.6534 122.56 93.3263 139.272 101.84 163.937C106.199 176.563 115.78 183.461 125.882 186.946C135.959 190.422 146.626 190.535 153.398 189.572Z" fill="#FA6938" stroke="#FA6938" stroke-width="2"/>
<path d="M153.067 188.117C140.764 178.679 115.641 151.534 113.575 118.456" stroke="#FA6938" stroke-width="2"/>
<path d="M154.851 160.821C146.858 158.727 130.207 155.213 127.546 157.919C124.885 160.625 120.012 175.051 117.908 181.927" stroke="#FA6938" stroke-width="2"/>
<path d="M144.328 132.51C137.229 130.333 121.7 127.332 116.378 132.744C111.057 138.155 102.626 146.127 99.076 149.436" stroke="#FA6938" stroke-width="2"/>
<path d="M57.6059 46.5809L57.5383 46.6098L57.4757 46.6483C52.0534 49.9852 49.7812 54.0596 50.0153 58.515C50.243 62.851 52.8404 67.2891 56.5116 71.4607C63.8774 79.8303 76.0793 87.6983 85.0361 92.386L85.7565 92.763L86.2726 92.1347C95.1081 81.3783 107.56 82.5279 112.649 84.4363L113.773 84.858L113.984 83.6758C114.83 78.9415 115.635 70.8957 115.324 62.0648C115.014 53.2448 113.587 43.5527 109.908 35.5809C108.057 31.5702 105.889 28.9027 103.534 27.2959C101.164 25.6786 98.6687 25.1802 96.2694 25.4043C91.9776 25.8053 88.0467 28.5049 85.4922 31.0588C80.9927 26.5048 77.3142 24.0425 74.29 23.2368C72.6717 22.8057 71.2103 22.8413 69.9215 23.3179C68.6359 23.7934 67.6099 24.6751 66.8028 25.7879C65.2136 27.9791 64.3903 31.1786 64.0171 34.4976C63.6693 37.5911 63.7002 40.9087 63.9405 43.8661L57.6059 46.5809Z" fill="#FFD15A" stroke="white" stroke-width="2"/>
<path d="M139.588 37.6545L139.53 37.6091L139.466 37.5726C133.939 34.4137 129.274 34.373 125.476 36.7143C121.78 38.9929 119.13 43.4 117.229 48.6218C113.415 59.0984 112.36 73.5787 112.54 83.6864L112.555 84.4993L113.353 84.651C127.029 87.2483 131.989 98.7267 132.754 104.108L132.923 105.297L134.062 104.915C138.622 103.388 146.069 100.237 153.67 95.7309C161.262 91.23 169.083 85.3315 174.315 78.2809C176.948 74.7336 178.249 71.552 178.531 68.7152C178.814 65.86 178.055 63.4312 176.708 61.4331C174.299 57.8588 170.045 55.7033 166.579 54.6859C168.418 48.5539 168.816 44.1453 168.073 41.105C167.676 39.4781 166.944 38.2127 165.908 37.3101C164.874 36.4098 163.608 35.9321 162.245 35.7573C159.56 35.4131 156.357 36.2244 153.266 37.4881C150.384 38.6659 147.488 40.2836 145.007 41.9122L139.588 37.6545Z" fill="#FFD15A" stroke="white" stroke-width="2"/>
<path d="M35.5845 135.725L35.5949 135.797L35.6158 135.868C37.4256 141.972 40.7678 145.227 45.1304 146.161C49.3762 147.07 54.3375 145.718 59.3211 143.259C69.32 138.327 80.0938 128.595 86.952 121.167L87.5036 120.57L87.0313 119.908C78.9465 108.577 83.2986 96.8541 86.4665 92.4372L87.1664 91.4614L86.0799 90.9497C81.729 88.9007 74.1706 86.0281 65.5633 84.0288C56.9667 82.032 47.2374 80.8858 38.5827 82.3624C34.2283 83.1054 31.0882 84.5042 28.9237 86.3593C26.7451 88.2264 25.6142 90.5058 25.2058 92.8807C24.4754 97.1289 26.0583 101.627 27.859 104.758C22.2905 107.917 18.9553 110.827 17.39 113.538C16.5524 114.988 16.2062 116.408 16.3308 117.776C16.4551 119.142 17.0392 120.362 17.9035 121.431C19.6053 123.536 22.48 125.164 25.5875 126.388C28.4837 127.53 31.6948 128.363 34.6128 128.902L35.5845 135.725Z" fill="#FFD15A" stroke="white" stroke-width="2"/>
<path d="M106.39 184.639L106.461 184.659L106.533 184.668C112.848 185.485 117.177 183.747 119.797 180.136C122.348 176.622 123.12 171.538 122.89 165.986C122.428 154.846 117.891 141.054 113.877 131.776L113.554 131.03L112.757 131.194C99.1227 133.999 90.166 125.273 87.4099 120.588L86.801 119.553L85.8933 120.339C82.2582 123.488 76.5713 129.236 71.2584 136.297C65.952 143.349 60.9648 151.781 58.8109 160.293C57.7272 164.575 57.7349 168.013 58.5548 170.743C59.38 173.491 61.0063 175.448 63.0125 176.783C66.6013 179.171 71.3551 179.544 74.9474 179.166C75.581 185.536 76.8919 189.764 78.7361 192.293C79.723 193.646 80.8815 194.537 82.1833 194.977C83.4818 195.416 84.8339 195.376 86.1614 195.019C88.7751 194.315 91.4276 192.346 93.8054 190C96.0216 187.814 98.0842 185.215 99.7577 182.765L106.39 184.639Z" fill="#FFD15A" stroke="white" stroke-width="2"/>
<path d="M188.33 126.047L188.368 125.989L188.397 125.927C191.479 119.44 191.108 114.278 188.122 110.374C185.213 106.571 179.989 104.198 173.899 102.792C161.679 99.9719 145.183 100.874 133.814 103.017L133.093 103.153L133.007 103.881C132.094 111.528 128.641 117.863 124.637 122.531C120.614 127.221 116.109 130.144 113.204 131.045L112.12 131.381L112.59 132.414C114.676 136.999 118.808 144.495 124.479 151.897C130.142 159.29 137.399 166.667 145.757 170.916C149.962 173.053 153.629 173.825 156.803 173.583C159.986 173.34 162.597 172.083 164.685 170.297C168.509 167.027 170.578 161.994 171.408 158.066C178.561 158.887 183.573 158.463 186.903 157.093C188.658 156.371 189.971 155.376 190.865 154.143C191.76 152.908 192.191 151.494 192.277 150.007C192.445 147.073 191.273 143.796 189.597 140.721C188.037 137.86 185.982 135.069 183.949 132.725L188.33 126.047Z" fill="#FFD15A" stroke="white" stroke-width="2"/>
<path d="M130.5 60.0305C124.1 59.2305 119 74.3638 117.5 82.0305C123.5 84.0305 128.833 92 130.5 95.5C139.167 92.1667 155.5 84.4305 151.5 82.0305C147.5 79.6305 133.833 84.0305 127.5 86.5305C137.833 80.5305 157.4 67.7305 153 64.5305C148.6 61.3305 130.833 74.8638 122.5 82.0305C127.833 75.0305 136.9 60.8305 130.5 60.0305Z" fill="#FFBD12"/>
<path d="M70.7559 70.1725C68.1548 76.0746 81.191 85.2988 88.1059 88.9337C91.7419 83.7588 100.906 80.9339 104.737 80.3406C104.028 71.0821 101.299 53.2166 97.8527 56.3607C94.4067 59.5048 94.7042 73.8592 95.2837 80.6434C92.4978 69.0237 85.8442 46.6089 81.5172 49.9069C77.1901 53.2049 85.0623 74.1055 89.5392 84.1435C84.3619 77.0273 73.3571 64.2705 70.7559 70.1725Z" fill="#FFBD12"/>
<path d="M59.3546 123.897C63.6203 128.735 77.4636 120.773 83.6647 116.022C80.4935 110.55 81.775 101.047 82.844 97.3204C74.1427 94.0786 56.7811 89.0585 58.1889 93.5058C59.5967 97.9531 72.7508 103.707 79.1519 106.028C67.4358 103.68 44.298 100.313 45.4757 105.625C46.6534 110.937 68.9281 112.562 79.9183 112.711C71.2864 114.424 55.089 119.06 59.3546 123.897Z" fill="#FFBD12"/>
<path d="M102.166 157.728C108.369 155.961 107.142 140.038 105.524 132.396C99.2195 132.902 91.1936 127.654 88.2906 125.085C81.6185 131.543 69.6129 145.052 74.233 145.696C78.8531 146.34 89.7096 136.945 94.5603 132.166C87.3974 141.73 74.397 161.164 79.6982 162.388C84.9994 163.612 96.0563 144.207 100.922 134.352C98.7521 142.88 95.9626 159.495 102.166 157.728Z" fill="#FFBD12"/>
<path d="M155.179 121.811C154.847 115.369 139.055 112.996 131.244 112.861C130.325 119.118 123.412 125.764 120.257 128.017C125.056 135.967 135.531 150.695 137.194 146.336C138.857 141.978 132.133 129.292 128.563 123.494C136.279 132.618 152.305 149.643 154.686 144.751C157.067 139.859 140.633 124.734 132.119 117.784C139.944 121.81 155.512 128.252 155.179 121.811Z" fill="#FFBD12"/>
<ellipse cx="107.5" cy="106" rx="26.5" ry="27" fill="#FA6938"/>
<circle cx="133.5" cy="56.5" r="1.5" fill="#FFBD12"/>
<circle cx="158.5" cy="61.5" r="1.5" fill="#FFBD12"/>
<circle cx="156.5" cy="81.5" r="1.5" fill="#FFBD12"/>
<circle cx="68.4939" cy="66.4234" r="1.5" transform="rotate(-94.3252 68.4939 66.4234)" fill="#FFBD12"/>
<circle cx="79.6087" cy="45.6089" r="1.5" transform="rotate(-94.3252 79.6087 45.6089)" fill="#FFBD12"/>
<circle cx="98.6087" cy="52.6089" r="1.5" transform="rotate(-94.3252 98.6087 52.6089)" fill="#FFBD12"/>
<circle cx="56.1943" cy="123.599" r="1.5" transform="rotate(-166.811 56.1943 123.599)" fill="#FFBD12"/>
<circle cx="39.6899" cy="106.735" r="1.5" transform="rotate(-166.811 39.6899 106.735)" fill="#FFBD12"/>
<circle cx="52.0835" cy="90.7227" r="1.5" transform="rotate(-166.811 52.0835 90.7227)" fill="#FFBD12"/>
<circle cx="100.836" cy="161.834" r="1.5" transform="rotate(129.424 100.836 161.834)" fill="#FFBD12"/>
<circle cx="78.4136" cy="169.184" r="1.5" transform="rotate(129.424 78.4136 169.184)" fill="#FFBD12"/>
<circle cx="69.5293" cy="150.988" r="1.5" transform="rotate(129.424 69.5293 150.988)" fill="#FFBD12"/>
<circle cx="159.361" cy="122.872" r="1.5" transform="rotate(64.9031 159.361 122.872)" fill="#FFBD12"/>
<circle cx="156.35" cy="146.275" r="1.5" transform="rotate(64.9031 156.35 146.275)" fill="#FFBD12"/>
<circle cx="138.995" cy="149.995" r="1.5" transform="rotate(64.9031 138.995 149.995)" fill="#FFBD12"/>
</svg>
